<?xml version="1.0" encoding="utf-8"?>
<!-- Generator: Adobe Illustrator 19.1.0, SVG Export Plug-In . SVG Version: 6.00 Build 0)  -->
<svg version="1.1" id="Layer_1" xmlns="http://www.w3.org/2000/svg" xmlns:xlink="http://www.w3.org/1999/xlink" x="0px" y="0px"
	 viewBox="0 0 110 110" style="enable-background:new 0 0 110 110;" xml:space="preserve">
<style type="text/css">
	.st0{opacity:0.2;fill:#23A9E1;}
	.st1{fill:#65C6BB;}
	.st2{fill:#23A9E1;}
	.st3{fill:#183A63;}
	.st4{fill:#FCD0A5;}
	.st5{fill:#4297D3;}
	.st6{fill:#2A1D1D;}
	.st7{fill:#F0B98A;}
	.st8{fill:#F15C57;}
	.st9{fill:#F2F4F6;}
	.st10{fill:#DFEAEE;}
	.st11{fill:#764830;}
	.st12{fill:#5E3827;}
	.st13{fill:#156299;}
	.st14{fill:#3E8BC8;}
	.st15{opacity:0.2;fill:#25A6DF;}
	.st16{fill:#25A6DF;}
	.st17{fill:#66C6BB;}
	.st18{fill:#1A3B63;}
	.st19{fill:#FACEA4;}
	.st20{fill:#4296D2;}
	.st21{fill:#2B1C1D;}
	.st22{fill:#EFB888;}
	.st23{fill:#F15E57;}
	.st24{fill:#F2F4F5;}
	.st25{fill:#DDE8ED;}
	.st26{fill:none;}
</style>
<g>
	<circle class="st0" cx="55" cy="55" r="53.7"/>
	<g>
		<path class="st1" d="M73.8,81.2c1.6,0,2.9,1.3,2.9,2.9c0,1.6-1.3,2.9-2.9,2.9c-1.6,0-2.9-1.3-2.9-2.9
			C70.9,82.6,72.2,81.2,73.8,81.2z"/>
		<path class="st2" d="M87,52.3v17.5c0,2.9-2.4,5.3-5.3,5.3H70.9c-1.9,0-4.2-1.6-5.1-3.2l2.7-2.2h7.9V52.3l1.3,0.4
			c1.3,0.4,2.7,0.2,4-0.4c1.2-0.6,2.6-0.8,3.9-0.4L87,52.3z"/>
		<path class="st2" d="M70.4,38.7c0.1,0,0.3,0,0.4,0h10.8c0.1,0,0.3,0,0.4,0c2.7,0.2,4.9,2.5,4.9,5.3v8.3l-1.5-0.4
			c-1.3-0.4-2.7-0.2-3.9,0.4c-1.2,0.6-2.6,0.8-4,0.4l-1.3-0.4v-6H65.6v-2.3C65.6,41.2,67.7,38.9,70.4,38.7z"/>
		<path class="st1" d="M82.1,34.9v3.8c-0.1,0-0.3,0-0.4,0H70.9c-0.1,0-0.3,0-0.4,0v-3.8c0-1.1,0.9-1.9,1.9-1.9h7.8
			C81.2,32.9,82.1,33.8,82.1,34.9z"/>
		<path class="st1" d="M80.6,22.1v6.5h-8.7v-6.5H80.6z"/>
		<path class="st2" d="M73.8,28.6h4.9v4.3h-4.9V28.6z"/>
		<path class="st1" d="M76.3,52.3v17.4h-7.9l2.4-1.9c0.8-0.7,1-1.8,0.4-2.7s-1.7-1.2-2.7-0.8l0-0.1l2.8-2.3c0.9-0.7,1-2,0.3-2.9
			c-0.7-0.9-2-1-2.9-0.3l1.6-1.3c0.6-0.5,0.9-1.2,0.8-2c-0.1-0.7-0.6-1.4-1.3-1.6c-0.7-0.3-1.5-0.1-2.1,0.3l-2.4,2
			c0.9-0.7,1-2,0.3-2.9c0,0,0,0,0,0v-6.9h10.7V52.3z"/>
		<path class="st1" d="M68.4,69.7l-2.7,2.2L64.4,73l-3.3,2.7l-3.4,2.8c-1.6,1.3-3.6,1.8-5.6,1.5l0,0l-4.4,3.6
			c-1.8,1.5-4.4,1.2-5.9-0.6L37,77.2c-1.5-1.8-1.2-4.4,0.6-5.9l0.8-0.7l1.9-1.5l0.8-0.7c-0.6-2.3,0.2-4.8,2.1-6.4l10.1-8.2l1.4-1.1
			c0.4-0.3,0.9-0.3,1.2,0.1c1.5,1.8,1.2,4.5-0.5,6l7.3-6c0.9-0.7,2.2-0.6,2.9,0.3c0,0,0,0,0,0c0.7,0.9,0.6,2.2-0.3,2.9l2.4-2
			c0.9-0.7,2.2-0.6,2.9,0.3c0.7,0.9,0.6,2.2-0.3,2.9l-1.6,1.3c0.9-0.7,2.2-0.6,2.9,0.3c0.7,0.9,0.6,2.2-0.3,2.9l-2.8,2.3l0,0.1
			c1-0.4,2.1-0.1,2.7,0.8s0.4,2.1-0.4,2.7L68.4,69.7z"/>
		<path class="st1" d="M61.8,82.1c1.6,0,2.9,1.3,2.9,2.9c0,1.6-1.3,2.9-2.9,2.9c-1.6,0-2.9-1.3-2.9-2.9
			C58.9,83.4,60.2,82.1,61.8,82.1z"/>
		<path class="st2" d="M62.9,37c0.7,1.5,0.3,3.4-1,4.4c-1.3,1.1-3.2,1.1-4.6,0c-1.3-1.1-1.7-2.9-1-4.4l3.3-5.2L62.9,37z"/>
		<path class="st2" d="M31.8,52.2c1-2.2,3.2-3.7,5.7-3.7h14.8c0.5,0,0.9,0.4,0.9,0.9c0,2.4-1.9,4.3-4.3,4.3h4.5l0,0L43.2,62
			c-1.9,1.5-2.7,4-2.1,6.4l-0.8,0.7l-1.9,1.5l0,0c-2.1,0-4.1-1-5.4-2.5h-5.7c-2.3,0-4.2-1.9-4.2-4.2v-7.5c0-2.3,1.9-4.2,4.2-4.2
			H31.8z"/>
		<path class="st1" d="M46.8,37.9c1.6,0,2.9,1.3,2.9,2.9c0,1.6-1.3,2.9-2.9,2.9c-1.6,0-2.9-1.3-2.9-2.9
			C43.9,39.2,45.2,37.9,46.8,37.9z"/>
		<path class="st1" d="M36.1,32.2c1.6,0,2.9,1.3,2.9,2.9c0,1.6-1.3,2.9-2.9,2.9c-1.6,0-2.9-1.3-2.9-2.9
			C33.2,33.5,34.5,32.2,36.1,32.2z"/>
		<g>
			<path class="st3" d="M27.2,69h5.3c1,1.1,2.3,1.9,3.7,2.3c-1.5,1.9-1.5,4.6,0,6.5l4.7,5.8c0.9,1.1,2.1,1.7,3.5,1.9
				c0.2,0,0.4,0,0.5,0c1.2,0,2.3-0.4,3.3-1.2l4.1-3.3c2.1,0.2,4.3-0.4,6-1.8l7.2-5.9c1.3,1.5,3.3,2.7,5.3,2.7h10.8
				c1.7,0,3.3-0.7,4.4-1.8c1.2-1.2,1.8-2.8,1.8-4.4V43.9c0-2.9-2-5.5-4.8-6.1v-2.9c0-1.6-1.4-3-3-3h-0.5v-2.3h0.9
				c0.6,0,1.1-0.4,1.1-1v-6.5c0-0.6-0.5-1-1.1-1h-8.7c-0.3,0-0.5,0.1-0.7,0.3c-0.2,0.2-0.3,0.4-0.3,0.7v2.4c-0.9-0.6-1.8-1-2.8-1
				l-7.5-0.1h0c-0.6,0-1,0.5-1,1c0,0.6,0.4,1,1,1l7.5,0.1c1.6,0,2.9,1.3,2.8,2.9c0,0.1,0,0.2,0.1,0.3c0.1,0.5,0.5,0.8,1,0.8h0.9v2.3
				h-0.4c-1.6,0-2.9,1.3-2.9,3v2.9c-2.7,0.7-4.9,3.2-4.9,6.1v7.5c-0.2,0-0.4-0.1-0.6-0.1c-0.7,0-1.4,0.2-1.9,0.7l-4.2,3.4
				c0-1.2-0.4-2.4-1.2-3.3c-0.7-0.8-1.8-0.9-2.7-0.3l-1,0.8h0c0.8-0.9,1.2-2.1,1.2-3.3c0-1-0.8-1.9-1.9-1.9H37.4
				c-2.6,0-5,1.5-6.3,3.8h-3.9c-1.4,0-2.7,0.5-3.6,1.5c-1,1-1.5,2.3-1.5,3.6v7.5c0,1.4,0.5,2.7,1.5,3.6C24.5,68.5,25.9,69,27.2,69z
				 M81.7,74.1H70.9c-1.3,0-2.8-0.9-3.7-2l1.6-1.3h7.5c0.3,0,0.5-0.1,0.7-0.3c0.2-0.2,0.3-0.4,0.3-0.7V53.6l0.1,0
				c1.6,0.4,3.3,0.3,4.7-0.5c1-0.5,2.1-0.6,3.2-0.3l0.7,0.2v16.7c0,1.1-0.4,2.2-1.2,3C83.9,73.6,82.8,74.1,81.7,74.1z M71.9,64.2
				c-0.2-0.3-0.5-0.5-0.8-0.7l1-0.8c0.8-0.7,1.2-1.7,1.1-2.7c-0.1-1-0.7-1.9-1.6-2.4c0.9-1.3,0.8-3-0.4-4.1
				c-1.1-1.1-2.9-1.1-4.1-0.2l-0.2,0.1c-0.1-0.2-0.2-0.5-0.3-0.7v-5.6h8.7v21.5h-4l0.2-0.1c0.6-0.5,1-1.3,1.1-2.1
				C72.6,65.7,72.4,64.8,71.9,64.2L71.9,64.2z M72.9,23.1h6.8v4.5h-6.8V23.1z M74.8,29.6h2.9v2.3h-2.9V29.6z M72.4,33.9h7.8
				c0.5,0,1,0.4,1,1v2.8h-9.7v-2.8C71.5,34.4,71.9,33.9,72.4,33.9z M70.5,39.7c0.1,0,0.2,0,0.4,0h10.8c0.1,0,0.2,0,0.3,0
				c2.2,0.2,3.9,2,3.9,4.2v7l-0.2,0c-1.6-0.4-3.2-0.3-4.6,0.5c-1,0.5-2.2,0.6-3.2,0.3l-0.6-0.2v-5.3c0-0.6-0.4-1.1-1-1.1h-9.7v-1.2
				C66.6,41.7,68.3,39.9,70.5,39.7z M55.8,55.5c0,1-0.4,1.9-1.1,2.5c0,0,0,0-0.1,0.1l-3.9,3.1c-0.4,0.4-0.5,1-0.1,1.4
				c0.4,0.4,1,0.5,1.4,0.1l3.2-2.6l0.6-0.5c0,0,0.1,0,0.1-0.1l0,0l7.3-6c0.5-0.4,1.1-0.3,1.5,0.1c0,0,0,0,0,0
				c0.4,0.5,0.3,1.1-0.2,1.5L55,63.2c-0.3,0.2-0.4,0.6-0.4,0.9c0.1,0.4,0.3,0.7,0.6,0.8c0.3,0.1,0.7,0.1,1-0.2l9.6-7.8h0l2.4-2
				c0.5-0.4,1.1-0.3,1.5,0.2c0.4,0.5,0.3,1.1-0.2,1.5l-1.6,1.3c0,0,0,0,0,0l-2.4,2l-8,6.5c-0.4,0.4-0.5,1-0.1,1.4
				c0.4,0.4,1,0.5,1.4,0.1l8-6.5l2.4-2c0,0,0,0,0,0c0.2-0.2,0.4-0.2,0.7-0.2c0.5,0,0.9,0.3,1,0.7c0.2,0.4,0,0.9-0.3,1.2l-2.8,2.3
				c-0.1,0-0.1,0.1-0.1,0.1c-0.1,0.1-0.2,0.1-0.3,0.2l-5.6,4.5c-0.4,0.4-0.5,1-0.1,1.4c0.4,0.4,1,0.5,1.4,0.2l5.6-4.5
				c0.1-0.1,0.1-0.1,0.2-0.1c0.5-0.2,1.1-0.1,1.4,0.4c0.3,0.5,0.2,1.1-0.2,1.4L57,77.7c-1.3,1.1-3,1.5-4.7,1.3
				c-0.3-0.1-0.7,0-0.9,0.2L47,82.8c-1.4,1.1-3.3,0.9-4.4-0.5l-4.7-5.8c-1.1-1.4-0.9-3.3,0.5-4.4l2.7-2.2c0,0,0,0,0,0l0.8-0.7
				c0.3-0.2,0.4-0.6,0.3-1c-0.5-2,0.2-4,1.8-5.3l11.3-9.2C55.6,54.1,55.8,54.8,55.8,55.5z M24.1,56.4c0-0.8,0.3-1.6,0.9-2.2
				c0.6-0.6,1.4-0.9,2.2-0.9h3.1c-0.1,0.5-0.2,1-0.2,1.6c0,2.3,0.9,4.6,2.6,6.2l0.4,0.4c0.4,0.4,1,0.4,1.4,0c0.4-0.4,0.4-1,0-1.4
				l-0.4-0.4c-1.3-1.3-2-3-2-4.8c0-2.9,2.3-5.3,5.2-5.3h14.6c-0.1,1.9-1.5,3.2-3.3,3.2h-6c-0.6,0-1,0.5-1,1c0,1.6-1.3,2.9-2.8,2.9
				c-0.6,0-1,0.5-1,1c0,0.3,0.1,0.5,0.3,0.7c0.2,0.2,0.4,0.3,0.7,0.3c2.3,0,4.3-1.6,4.8-3.9h6.8l-2.6,2.2h-1.9c-0.5,0-0.9,0.3-1,0.8
				c-0.1,0.5,0.1,0.9,0.6,1.1l-2.9,2.4c-2,1.6-3,4.2-2.6,6.8l-0.4,0.3l-1.5,1.2c-1.7-0.1-3.3-0.9-4.4-2.2c-0.7-0.8-1.1-1.7-1.4-2.6
				c-0.1-0.3-0.2-0.5-0.5-0.6c-0.2-0.1-0.5-0.2-0.8-0.1c-0.3,0.1-0.5,0.2-0.6,0.4c-0.1,0.2-0.2,0.5-0.1,0.8c0.1,0.6,0.4,1.2,0.7,1.8
				h-3.8c-0.8,0-1.6-0.3-2.2-0.9c-0.6-0.6-0.9-1.4-0.9-2.2V56.4z"/>
			<path class="st3" d="M55.4,36.6c-1,2-0.4,4.3,1.3,5.7c1.7,1.4,4.1,1.4,5.8,0c1.7-1.4,2.2-3.7,1.3-5.7c0,0,0-0.1-0.1-0.1l-3.3-5.2
				c-0.2-0.3-0.5-0.5-0.9-0.5c-0.3,0-0.7,0.2-0.9,0.5L55.4,36.6C55.4,36.5,55.4,36.6,55.4,36.6z M57.2,37.5l2.4-3.8l2.4,3.8
				c0.5,1.2,0.2,2.5-0.9,3.3c-1,0.7-2.5,0.6-3.4-0.3C57,39.7,56.7,38.5,57.2,37.5z"/>
			<path class="st3" d="M42.9,40.8c0,2.2,1.8,3.9,3.9,3.9c2.2,0,3.9-1.8,3.9-3.9c0-2.2-1.8-3.9-3.9-3.9
				C44.6,36.9,42.9,38.7,42.9,40.8z M48.7,40.8c0,1-0.8,1.9-1.9,1.9c-1,0-1.9-0.8-1.9-1.9c0-1,0.8-1.9,1.9-1.9
				C47.8,38.9,48.7,39.8,48.7,40.8z"/>
			<path class="st3" d="M32.2,35.1c0,2.2,1.8,3.9,3.9,3.9c2.2,0,3.9-1.8,3.9-3.9c0-2.2-1.8-3.9-3.9-3.9
				C33.9,31.1,32.2,32.9,32.2,35.1z M38,35.1c0,1-0.8,1.9-1.9,1.9c-1,0-1.9-0.8-1.9-1.9c0-1,0.8-1.9,1.9-1.9
				C37.1,33.2,38,34,38,35.1z"/>
			<path class="st3" d="M57.9,85c0,2.2,1.8,3.9,3.9,3.9c2.2,0,3.9-1.8,3.9-3.9s-1.8-3.9-3.9-3.9C59.6,81.1,57.9,82.9,57.9,85z
				 M63.7,85c0,1-0.8,1.9-1.9,1.9c-1,0-1.9-0.8-1.9-1.9c0-1,0.8-1.9,1.9-1.9C62.8,83.1,63.7,84,63.7,85z"/>
			<path class="st3" d="M69.9,84.2c0,2.2,1.8,3.9,3.9,3.9c2.2,0,3.9-1.8,3.9-3.9c0-2.2-1.8-3.9-3.9-3.9C71.6,80.2,69.9,82,69.9,84.2
				z M75.7,84.2c0,1-0.8,1.9-1.9,1.9c-1,0-1.9-0.8-1.9-1.9c0-1,0.8-1.9,1.9-1.9C74.8,82.3,75.7,83.1,75.7,84.2z"/>
		</g>
	</g>
</g>
</svg>
