<?xml version="1.0" encoding="utf-8"?>
<!-- Generator: Adobe Illustrator 19.1.0, SVG Export Plug-In . SVG Version: 6.00 Build 0)  -->
<svg version="1.1" id="Layer_1" xmlns="http://www.w3.org/2000/svg" xmlns:xlink="http://www.w3.org/1999/xlink" x="0px" y="0px"
	 viewBox="0 0 110 110" style="enable-background:new 0 0 110 110;" xml:space="preserve">
<style type="text/css">
	.st0{opacity:0.2;fill:#23A9E1;}
	.st1{fill:#65C6BB;}
	.st2{fill:#23A9E1;}
	.st3{fill:#183A63;}
	.st4{fill:#FCD0A5;}
	.st5{fill:#4297D3;}
	.st6{fill:#2A1D1D;}
	.st7{fill:#F0B98A;}
	.st8{fill:#F15C57;}
	.st9{fill:#F2F4F6;}
	.st10{fill:#DFEAEE;}
	.st11{fill:#764830;}
	.st12{fill:#5E3827;}
	.st13{fill:#156299;}
	.st14{fill:#3E8BC8;}
	.st15{opacity:0.2;fill:#25A6DF;}
	.st16{fill:#25A6DF;}
	.st17{fill:#66C6BB;}
	.st18{fill:#1A3B63;}
	.st19{fill:#FACEA4;}
	.st20{fill:#4296D2;}
	.st21{fill:#2B1C1D;}
	.st22{fill:#EFB888;}
	.st23{fill:#F15E57;}
	.st24{fill:#F2F4F5;}
	.st25{fill:#DDE8ED;}
	.st26{fill:none;}
</style>
<g>
	<circle class="st0" cx="55" cy="55" r="53.7"/>
	<g>
		<g>
			<path class="st4" d="M82.9,57c0,3.5-2.7,6.3-6.1,6.6c-0.2,0-0.4,0-0.5,0c-0.5,0-0.9,0-1.4-0.1H35.1c-0.4,0.1-0.9,0.1-1.4,0.1h0
				c-3.7,0-6.6-3-6.6-6.6c0-3.4,2.6-6.3,6-6.6c0.2,0,0.4,0,0.6,0c0.3,0,0.6,0,0.8,0h41c0.3,0,0.5,0,0.8,0c0.4,0,0.8,0,1.2,0.1
				C80.6,51,82.9,53.8,82.9,57z"/>
			<path class="st4" d="M75.5,47.5v13.8c0,9.9-7,18.1-16.4,19.8c-1.2,0.2-2.5,0.4-3.8,0.4c-11.2,0-20.2-9-20.2-20.2V47.5
				c0-11.2,9-20.2,20.2-20.2c1.3,0,2.6,0.1,3.8,0.4c4,0.8,7.7,2.8,10.5,5.6C73.2,36.8,75.5,41.9,75.5,47.5z"/>
			<path class="st4" d="M75.5,47.5v13.8c0,9.9-7,18.1-16.4,19.8c-9.3-1.8-16.4-10-16.4-19.8V47.5c0-9.9,7-18.1,16.4-19.8
				c4,0.8,7.7,2.8,10.5,5.6C73.2,36.8,75.5,41.9,75.5,47.5z"/>
			<path class="st2" d="M75.5,47.5v3c-23.9,0-31.9-9.8-31.9-9.8c0,4.1-4.1,8.4-8.5,9.8v-3c0-11.2,9-20.2,20.2-20.2
				c1.3,0,2.6,0.1,3.8,0.4c4,0.8,7.7,2.8,10.5,5.6C73.2,36.8,75.5,41.9,75.5,47.5z"/>
			<path class="st1" d="M70.4,61.2v8.5l-5.3,9.4c-1.3,2.2-3.6,3.6-6.2,3.6h-7.4c-2.6,0-4.9-1.4-6.2-3.6l-5.3-9.4v-8.5l5.7-0.7
				l9.5-1.2L70.4,61.2z"/>
		</g>
		<g>
			<path class="st3" d="M46.5,53.2c-0.5,0-0.9,0.4-0.9,0.9v3.8c0,0.5,0.4,0.9,0.9,0.9s0.9-0.4,0.9-0.9V54
				C47.3,53.5,46.9,53.2,46.5,53.2z"/>
			<path class="st3" d="M64.1,58.7c0.5,0,0.9-0.4,0.9-0.9V54c0-0.5-0.4-0.9-0.9-0.9s-0.9,0.4-0.9,0.9v3.8
				C63.2,58.3,63.6,58.7,64.1,58.7z"/>
			<path class="st3" d="M76.3,49.5v-2.1c0-5.6-2.2-10.9-6.2-14.9c-3-3-6.8-5-10.9-5.8c-1.3-0.3-2.7-0.4-4-0.4
				c-11.6,0-21.1,9.5-21.1,21.1v2.1c-0.2,0-0.3,0-0.5,0c-4.1,0-7.5,3.4-7.5,7.5c0,4.1,3.4,7.5,7.5,7.5c0.3,0,0.5,0,0.7,0
				c0.4,2.6,1.3,5.2,2.7,7.5c1.8,3.1,4.4,5.6,7.4,7.4l0.1,0.2c1.4,2.5,4.1,4.1,6.9,4.1H59c2.9,0,5.5-1.6,6.9-4.1l0.1-0.2
				c3.1-1.8,5.6-4.4,7.4-7.4c1.4-2.3,2.3-4.8,2.7-7.4c0.1,0,0.1,0,0.2,0c4.1,0,7.5-3.4,7.5-7.5C83.8,52.9,80.4,49.6,76.3,49.5z
				 M55.3,28.1c1.2,0,2.5,0.1,3.7,0.3c3.8,0.7,7.3,2.6,10,5.3c3.7,3.7,5.7,8.5,5.7,13.7v2.1c-7.4-0.1-13.9-1.1-19.4-3.1
				c-0.4-0.2-0.9,0.1-1.1,0.5c-0.2,0.4,0.1,0.9,0.5,1.1c5.7,2,12.5,3.1,20,3.2v1.8L70,60.3l-14.6-1.8c-0.1,0-0.1,0-0.2,0l-14.6,1.8
				l-4.6-7.2v-2c2.1-0.8,4.2-2.2,5.7-4c1.3-1.5,2.2-3.1,2.6-4.6c1.3,1.1,3.5,2.7,6.9,4.3c0.4,0.2,0.9,0,1.1-0.4
				c0.2-0.4,0-0.9-0.4-1.1c-2.8-1.3-4.7-2.6-5.9-3.5c-1.2-1-1.8-1.6-1.8-1.6c-0.2-0.3-0.6-0.4-0.9-0.3c-0.3,0.1-0.6,0.4-0.6,0.8
				c0,1.7-0.8,3.6-2.4,5.3c-1.2,1.4-2.8,2.5-4.5,3.3v-1.7C35.9,36.8,44.6,28.1,55.3,28.1z M33.7,62.8c-3.2,0-5.8-2.6-5.8-5.8
				c0-3.2,2.6-5.8,5.8-5.8c0.2,0,0.3,0,0.5,0v3.4c-1.3-0.1-3,0.4-3.8,2.2c-0.2,0.4,0,0.9,0.4,1.1c0.1,0,0.2,0.1,0.3,0.1
				c0.3,0,0.6-0.2,0.8-0.5c0.5-1.1,1.5-1.2,2.2-1.1v4.8c0,0.5,0,1,0.1,1.5C34.1,62.8,33.9,62.8,33.7,62.8z M64.4,78.7
				c-1.1,2-3.2,3.2-5.4,3.2h-7.4c-2.2,0-4.3-1.2-5.4-3.2L41,69.5v-1.7c0-0.5-0.4-0.9-0.9-0.9c-0.5,0-0.9,0.4-0.9,0.9v1.9
				c0,0.1,0,0.3,0.1,0.4l3.2,5.7c-1.6-1.4-2.9-3-4-4.8c-1.8-3-2.7-6.4-2.7-9.8v-5l3.4,5.2v2.9c0,0.5,0.4,0.9,0.9,0.9
				c0.5,0,0.9-0.4,0.9-0.9V62l14.3-1.8L69.6,62v7.5L64.4,78.7z M71.9,71.1c-1.1,1.8-2.4,3.4-4,4.8l3.2-5.7c0.1-0.1,0.1-0.3,0.1-0.4
				v-8.3l3.4-5.2v5C74.6,64.7,73.7,68.1,71.9,71.1z M76.3,62.8C76.3,62.8,76.3,62.8,76.3,62.8c0-0.5,0-1,0-1.6v-4.8
				c0.7-0.1,1.7,0.1,2.2,1.1c0.1,0.3,0.5,0.5,0.8,0.5c0.1,0,0.2,0,0.3-0.1c0.4-0.2,0.6-0.7,0.4-1.1c-0.8-1.8-2.5-2.2-3.8-2.2v-3.5
				c3.2,0,5.7,2.6,5.7,5.8C82.1,60.2,79.5,62.8,76.3,62.8z"/>
		</g>
	</g>
</g>
</svg>
